# xmcd
#
# Track frame offsets:
#	150
#	16381
#	29191
#	48022
#	66372
#	83305
#	99976
#	119869
#	143788
#	156938
#	169495
#	183214
#	196381
#	211640
#	227300
#	237069
#	248755
#	269569
#	278795
#	294787
#	315111
#	331117
#
# Disc length: 4561 seconds
#
# Revision: 0
# Processed by: cddbd v1.5.2PL0 Copyright (c) Steve Scherf et al.
# Submitted via: EZCDAudioConverter 2.2.2.1
#
DISCID=2611cf16
DTITLE=Elvis Presley - You Know, It Don't Have To Be Strictly Country, Vol. 2
DYEAR=1900
DGENRE=
TTITLE0=When I’m Over You (take 1, undubbed master)
TTITLE1=I Really Don’t Want To Know (take 4, undubbed master) 
TTITLE2=Faded Love (take 1, undubbed master)
TTITLE3=Tomorrow Never Comes (take 13, undubbed master)
TTITLE4=The Next Step Is Love (take 11, undubbed master) 
TTITLE5=Make The World Go Away (take 3, Spliced undubbed master) 
TTITLE6=Funny How Times Slips Away (take 1, unedited undubbed master)
TTITLE7=I Washed My Hands in Muddy Water (take 1, unedited undubbed master) 
TTITLE8=Love Letters (take 5, unedited undubbed master) 
TTITLE9=There Goes My Everything (take 1) 
TTITLE10=If I Were You (take 9, undubbed master)  
TTITLE11=Only Believe (take 4, unedited undubbed master)
TTITLE12=Sylvia (take 8, unedited undubbed master)
TTITLE13=Patch It Up (take 8, unedited undubbed master)
TTITLE14=Snowbird (take 6, undubbed master)
TTITLE15=Where Did They Go Lord? (take 6, undubbed master) 
TTITLE16=Whole Lotta Shakin’ Goin’ On (take 2, unedited undubbed master)
TTITLE17=Rags to Riches (take 4, unrepaired undubbed master)
TTITLE18=I’ve Lost You (take 7 with June 22 backup vocal overdubs) 
TTITLE19=Bridge Over Troubled Water (take 8 with July 18 brass and string overdu
TTITLE19=b) 
TTITLE20=The Next Step Is Love (take 11 with July 18 brass and string overdub) 
TTITLE21=I’ll Never Know (take 7 with July 18 brass and strings overdub - no bac
TTITLE21=king vocals)  
EXTD=
EXTT0=
EXTT1=
EXTT2=
EXTT3=
EXTT4=
EXTT5=
EXTT6=
EXTT7=
EXTT8=
EXTT9=
EXTT10=
EXTT11=
EXTT12=
EXTT13=
EXTT14=
EXTT15=
EXTT16=
EXTT17=
EXTT18=
EXTT19=
EXTT20=
EXTT21=
PLAYORDER=
